<svg width="24" height="24" viewBox="0 0 24 24" fill="none" xmlns="http://www.w3.org/2000/svg">
<g clip-path="url(#clip0_305_5544)">
<path d="M22.7294 10.7305C22.4862 10.4374 22.1251 10.2678 21.7444 10.2678H7.33467L7.19491 9.54149C7.10573 9.07771 6.76835 8.70081 6.31727 8.56089L2.63546 7.41888C1.9604 7.20949 1.24325 7.58695 1.03386 8.26217C0.824474 8.93728 1.20199 9.65432 1.8771 9.86376L4.82621 10.7785L7.07389 20.6403C7.15216 21.0574 7.42764 21.3951 7.79287 21.565C7.78202 21.6527 7.77582 21.7417 7.77582 21.8323C7.77582 23.0277 8.74823 24.0001 9.94354 24.0001C11.1388 24.0001 12.1112 23.0277 12.1112 21.8323C12.1112 21.7823 12.1089 21.733 12.1057 21.684H15.5278C15.5244 21.7331 15.5221 21.7824 15.5221 21.8323C15.5221 23.0277 16.4946 24.0001 17.6899 24.0001C18.8853 24.0001 19.8577 23.0277 19.8577 21.8323C19.8577 21.7789 19.855 21.7261 19.8512 21.6735C20.3989 21.6071 20.8506 21.1941 20.9546 20.6403L23.0024 11.784C23.0725 11.4097 22.9725 11.0236 22.7294 10.7305ZM9.94354 22.8879C9.36139 22.8879 8.88784 22.4143 8.88784 21.8322C8.88784 21.2501 9.36139 20.7765 9.94354 20.7765C10.5257 20.7765 10.9992 21.2501 10.9992 21.8322C10.9992 22.4143 10.5257 22.8879 9.94354 22.8879ZM17.6898 22.8879C17.1077 22.8879 16.634 22.4143 16.634 21.8322C16.634 21.2501 17.1077 20.7765 17.6898 20.7765C18.2719 20.7765 18.7455 21.2501 18.7455 21.8322C18.7455 22.4143 18.2719 22.8879 17.6898 22.8879ZM18.4337 18.4963H9.66217C9.23812 18.4963 8.89424 18.1524 8.89424 17.7283C8.89424 17.3042 9.23812 16.9604 9.66217 16.9604H18.4337C18.8578 16.9604 19.2016 17.3042 19.2016 17.7283C19.2016 18.1524 18.8578 18.4963 18.4337 18.4963ZM18.4337 14.4006H9.66217C9.23812 14.4006 8.89424 14.0568 8.89424 13.6327C8.89424 13.2086 9.23812 12.8648 9.66217 12.8648H18.4337C18.8578 12.8648 19.2016 13.2086 19.2016 13.6327C19.2016 14.0568 18.8578 14.4006 18.4337 14.4006Z" fill="#E4E2E3"/>
<path d="M14.3723 9.05153C14.5076 9.18684 14.6848 9.25447 14.8622 9.25447C15.0395 9.25447 15.2168 9.18684 15.352 9.05153L18.1609 6.24265C18.359 6.04448 18.4183 5.74647 18.3112 5.48757C18.2038 5.22863 17.9513 5.05989 17.671 5.05989H15.8861V1.02391C15.8861 0.458403 15.4277 0 14.8622 0C14.2966 0 13.8383 0.458403 13.8383 1.02391V5.05984H12.0533C11.773 5.05984 11.5204 5.22863 11.4131 5.48752C11.3059 5.74642 11.3651 6.04442 11.5634 6.2426L14.3723 9.05153Z" fill="#E4E2E3"/>
</g>
<defs>
<clipPath id="clip0_305_5544">
<rect width="24" height="24" fill="white"/>
</clipPath>
</defs>
</svg>
