<?xml version="1.0" encoding="utf-8"?>
<!-- Generator: Adobe Illustrator 27.7.0, SVG Export Plug-In . SVG Version: 6.00 Build 0)  -->
<svg version="1.1" id="Laag_1" xmlns="http://www.w3.org/2000/svg" xmlns:xlink="http://www.w3.org/1999/xlink" x="0px" y="0px"
	 viewBox="0 0 64 22.5" style="enable-background:new 0 0 64 22.5;" xml:space="preserve">
<style type="text/css">
	.st0{fill:#FFFF6F;}
	.st1{fill:#FFFFFF;}
</style>
<g>
	<g>
		<path class="st0" d="M53.6,1.3h-2.3c-0.4,0-0.6-0.3-0.6-0.6S51,0,51.4,0h2.3c0.4,0,0.6,0.3,0.6,0.6S54,1.3,53.6,1.3z"/>
	</g>
	<g>
		<path class="st0" d="M48.9,1.3h-0.8c-0.4,0-0.6-0.3-0.6-0.6S47.7,0,48.1,0h0.8c0.4,0,0.6,0.3,0.6,0.6S49.2,1.3,48.9,1.3z"/>
	</g>
	<g>
		<path class="st0" d="M58.3,3.9H49c-0.4,0-0.6-0.3-0.6-0.6c0-0.4,0.3-0.6,0.6-0.6h9.3c0.4,0,0.6,0.3,0.6,0.6
			C58.9,3.6,58.6,3.9,58.3,3.9z"/>
	</g>
	<g>
		<path class="st0" d="M46.5,3.9h-3c-0.4,0-0.6-0.3-0.6-0.6c0-0.4,0.3-0.6,0.6-0.6h3c0.4,0,0.6,0.3,0.6,0.6
			C47.1,3.6,46.8,3.9,46.5,3.9z"/>
	</g>
	<g>
		<path class="st0" d="M42.7,6.5h-1.3c-0.4,0-0.6-0.3-0.6-0.6c0-0.4,0.3-0.6,0.6-0.6h1.3c0.4,0,0.6,0.3,0.6,0.6
			C43.3,6.2,43,6.5,42.7,6.5z"/>
	</g>
	<g>
		<path class="st0" d="M60.3,6.5H45.2c-0.4,0-0.6-0.3-0.6-0.6c0-0.4,0.3-0.6,0.6-0.6h15.1c0.4,0,0.6,0.3,0.6,0.6
			C60.9,6.2,60.7,6.5,60.3,6.5z"/>
	</g>
	<g>
		<path class="st0" d="M43.8,9.1h-3.4c-0.4,0-0.6-0.3-0.6-0.6s0.3-0.6,0.6-0.6h3.4c0.4,0,0.6,0.3,0.6,0.6S44.2,9.1,43.8,9.1z"/>
	</g>
	<g>
		<path class="st0" d="M49.5,9.1h-3.2c-0.4,0-0.6-0.3-0.6-0.6s0.3-0.6,0.6-0.6h3.2c0.4,0,0.6,0.3,0.6,0.6S49.9,9.1,49.5,9.1z"/>
	</g>
	<g>
		<path class="st0" d="M61.3,9.1h-9.1c-0.4,0-0.6-0.3-0.6-0.6s0.3-0.6,0.6-0.6h9.1c0.4,0,0.6,0.3,0.6,0.6S61.7,9.1,61.3,9.1z"/>
	</g>
	<g>
		<path class="st0" d="M42.3,14.4h-1.9c-0.4,0-0.6-0.3-0.6-0.6c0-0.4,0.3-0.6,0.6-0.6h1.9c0.4,0,0.6,0.3,0.6,0.6
			C42.9,14.1,42.6,14.4,42.3,14.4z"/>
	</g>
	<g>
		<path class="st0" d="M49.5,14.4h-4.7c-0.4,0-0.6-0.3-0.6-0.6c0-0.4,0.3-0.6,0.6-0.6h4.7c0.4,0,0.6,0.3,0.6,0.6
			C50.2,14.1,49.9,14.4,49.5,14.4z"/>
	</g>
	<g>
		<path class="st0" d="M61.3,14.4h-9.1c-0.4,0-0.6-0.3-0.6-0.6c0-0.4,0.3-0.6,0.6-0.6h9.1c0.4,0,0.6,0.3,0.6,0.6
			C61.9,14.1,61.7,14.4,61.3,14.4z"/>
	</g>
	<g>
		<path class="st0" d="M48.3,11.7h-8.2c-0.4,0-0.6-0.3-0.6-0.6c0-0.4,0.3-0.6,0.6-0.6h8.2c0.4,0,0.6,0.3,0.6,0.6
			C49,11.5,48.7,11.7,48.3,11.7z"/>
	</g>
	<g>
		<path class="st0" d="M58,11.7h-4.6c-0.4,0-0.6-0.3-0.6-0.6c0-0.4,0.3-0.6,0.6-0.6H58c0.4,0,0.6,0.3,0.6,0.6
			C58.6,11.5,58.3,11.7,58,11.7z"/>
	</g>
	<g>
		<path class="st0" d="M61.6,11.7h-1.1c-0.4,0-0.6-0.3-0.6-0.6c0-0.4,0.3-0.6,0.6-0.6h1.1c0.4,0,0.6,0.3,0.6,0.6
			C62.2,11.5,61.9,11.7,61.6,11.7z"/>
	</g>
	<g>
		<path class="st0" d="M46.5,17h-5.1c-0.4,0-0.6-0.3-0.6-0.6c0-0.4,0.3-0.6,0.6-0.6h5.1c0.4,0,0.6,0.3,0.6,0.6
			C47.1,16.7,46.9,17,46.5,17z"/>
	</g>
	<g>
		<path class="st0" d="M60.3,17H49c-0.4,0-0.6-0.3-0.6-0.6c0-0.4,0.3-0.6,0.6-0.6h11.3c0.4,0,0.6,0.3,0.6,0.6
			C60.9,16.7,60.6,17,60.3,17z"/>
	</g>
	<g>
		<path class="st0" d="M46.8,19.6h-3.4c-0.4,0-0.6-0.3-0.6-0.6c0-0.4,0.3-0.6,0.6-0.6h3.4c0.4,0,0.6,0.3,0.6,0.6
			C47.5,19.3,47.2,19.6,46.8,19.6z"/>
	</g>
	<g>
		<path class="st0" d="M61.3,19.6h-12c-0.4,0-0.6-0.3-0.6-0.6c0-0.4,0.3-0.6,0.6-0.6h12c0.4,0,0.6,0.3,0.6,0.6
			C62,19.3,61.7,19.6,61.3,19.6z"/>
	</g>
	<g>
		<path class="st0" d="M53.6,22.2h-5.5c-0.4,0-0.6-0.3-0.6-0.6c0-0.4,0.3-0.6,0.6-0.6h5.5c0.4,0,0.6,0.3,0.6,0.6
			C54.2,21.9,53.9,22.2,53.6,22.2z"/>
	</g>
	<g>
		<path class="st0" d="M63.4,22.2h-6.1c-0.4,0-0.6-0.3-0.6-0.6c0-0.4,0.3-0.6,0.6-0.6h6.1c0.4,0,0.6,0.3,0.6,0.6
			C64,21.9,63.7,22.2,63.4,22.2z"/>
	</g>
</g>
<g>
	<path class="st1" d="M11.5,20.9c-0.2-0.2-0.6-0.5-1-0.8L10.4,20h-0.2c-0.5,0.4-1,0.7-1.5,0.9c-0.6,0.2-1.2,0.3-1.9,0.3
		c-1.4,0-2.7-0.3-3.7-1c-1-0.7-1.8-1.6-2.3-2.7C0.3,16.3,0,15.1,0,13.8c0-1.6,0.3-2.9,1-4c0.7-1.1,1.5-2,2.6-2.5
		C4.7,6.7,5.8,6.4,7,6.4c1.2,0,2.2,0.3,3.2,0.8c1,0.5,1.8,1.3,2.4,2.3c0.6,1,0.9,2.3,0.9,3.8c0,1-0.2,1.8-0.6,2.7
		c-0.4,0.8-0.9,1.4-1.5,1.7V18c0.2,0.2,0.5,0.3,0.8,0.6c0.4,0.3,0.8,0.5,1.3,0.8v3.2c-0.1-0.1-0.4-0.3-0.7-0.5l-0.3-0.2
		C12.1,21.4,11.8,21.1,11.5,20.9z M7.5,18.6c0.3,0,0.5-0.1,0.7-0.2c-0.6-0.4-1.1-0.8-1.3-1c-0.3-0.2-0.7-0.5-1.3-1
		c-0.6-0.5-1.1-0.8-1.4-1c-0.3-0.2-0.8-0.6-1.4-1c0.2,1.4,0.6,2.4,1.3,3.1c0.7,0.7,1.6,1.1,2.7,1.1C7,18.6,7.2,18.6,7.5,18.6z
		 M10.6,15.5c0.1-0.6,0.2-1.1,0.2-1.7c0-0.9-0.1-1.7-0.4-2.4c-0.3-0.7-0.7-1.3-1.4-1.8C8.4,9.2,7.7,8.9,6.8,8.9
		c-0.5,0-1,0.1-1.4,0.2C4.9,9.3,4.6,9.6,4.2,9.9c-0.3,0.3-0.6,0.6-0.8,1.1c-0.2,0.3-0.3,0.7-0.4,1c1.2,0.8,2.4,1.7,3.8,2.7
		c1.4,1,2.5,1.8,3.2,2.3C10.3,16.5,10.5,16.1,10.6,15.5z"/>
	<path class="st1" d="M15.2,6.7h2.7c0,0.7,0,1.2,0,1.6c0,0.3,0,0.9,0,1.6c0,0.9,0,1.8,0,2.7c0,0,0.1,0,0.1,0
		c0.2-0.5,0.4-0.9,0.8-1.2c0.3-0.4,0.7-0.7,1.2-0.9c0.5-0.2,1-0.3,1.5-0.3c1.3,0,2.3,0.5,3,1.4c0.7,1,1,2.2,1,3.7
		c0,1.1-0.2,2-0.6,2.9c-0.4,0.9-1,1.6-1.8,2.1c-0.8,0.5-1.8,0.8-3,0.8h-4.9V6.7z M20.3,18.6c0.5,0,1-0.1,1.3-0.4
		c0.4-0.3,0.7-0.7,0.9-1.2c0.2-0.5,0.3-1.1,0.3-1.7c0-0.9-0.2-1.6-0.6-2c-0.4-0.5-1-0.7-1.7-0.7c-0.8,0-1.5,0.3-2,0.9
		c-0.5,0.6-0.7,1.3-0.7,2.2c0,1,0,2,0,2.9C18.7,18.6,19.5,18.6,20.3,18.6z"/>
	<path class="st1" d="M27.2,8.3c-0.3-0.3-0.5-0.7-0.5-1.2c0-0.5,0.2-0.8,0.5-1.2c0.3-0.3,0.7-0.5,1.2-0.5c0.5,0,0.8,0.2,1.2,0.5
		C29.9,6.3,30,6.7,30,7.2c0,0.5-0.2,0.9-0.5,1.2c-0.3,0.3-0.7,0.5-1.2,0.5C27.9,8.8,27.5,8.7,27.2,8.3z M27.1,19.4
		c0-0.3,0-0.8,0-1.5c0-0.5,0-0.9,0-1.2c0-0.2,0-0.6,0-1.1c0-0.5,0-0.9,0-1.2c0-0.3,0-0.6,0-1.1c0-0.7,0-1.2,0-1.5s0-0.8,0-1.5h2.7
		c0,0.7,0,1.1,0,1.5c0,0.3,0,0.8,0,1.4c0,0.6,0,1,0,1.3c0,0.3,0,0.7,0,1.3c0,0.5,0,0.9,0,1.1c0,0.2,0,0.6,0,1.1c0,0.5,0,0.9,0,1.1
		c0,0.2,0,0.5,0,0.7c0,0.2,0,0.6,0,1.1h-2.7C27.1,20.3,27.1,19.8,27.1,19.4z"/>
	<path class="st1" d="M32,19c0-0.4,0-1,0-1.9c0-0.7,0-1.2,0-1.5c0-0.3,0-0.8,0-1.5c0-0.7,0-1.3,0-1.6c0-0.4,0-0.9,0-1.6
		c0-1,0-1.7,0-2.1c0-0.5,0-1.2,0-2.1h2.7c0,0.9,0,1.6,0,2s0,1.1,0,2c0,0.8,0,1.4,0,1.8c0,0.4,0,1,0,1.8c0,0.7,0,1.1,0,1.5
		c0,0.3,0,0.8,0,1.4c0,0.9,0,1.5,0,1.9c0,0.4,0,1,0,1.9H32C32,20.1,32,19.4,32,19z"/>
</g>
</svg>
